#Comment line ignore any data following # character 
#Hierarchical Translation and Rotation (.htr) file 
[Header]	
#Header keywords are followed by a single value 
FileType HTR		#Single word string
DataType HTRS		#Translation followed by rotation and scale data
FileVersion 1		#integer
NumSegments 64		#integer
NumFrames 3		#integer
DataFrameRate 30		#integer, data frame rate in this file
EulerRotationOrder ZYX
CalibrationUnits mm
RotationUnits Degrees
GlobalAxisofGravity Y
BoneLengthAxis Y
ScaleFactor 1.00
[SegmentNames&Hierarchy]
#CHILD	PARENT
Pinger_Root GLOBAL
Pelvis Pinger_Root
L_Hip Pelvis
R_Hip Pelvis
Rear_Leg01 Pelvis
Spine1 Pelvis
L_Leg01 L_Hip
L_Leg02 L_Leg01
L_Leg03 L_Leg02
L_Foot L_Leg03
L_Toe1_01 L_Foot
L_Toe2_01 L_Foot
L_Toe3_01 L_Foot
planeAlignerLeft L_Foot
L_Toe1_02 L_Toe1_01
L_Toe1_03 L_Toe1_02
L_Toe2_02 L_Toe2_01
L_Toe2_03 L_Toe2_02
L_Toe3_02 L_Toe3_01
L_Toe3_03 L_Toe3_02
planeLockWeightLeft planeAlignerLeft
R_Leg01 R_Hip
R_Leg02 R_Leg01
R_Leg03 R_Leg02
R_Foot R_Leg03
planeAlignerRight R_Foot
R_Toe1_01 R_Foot
R_Toe2_01 R_Foot
R_Toe3_01 R_Foot
planeLockWeightRight planeAlignerRight
R_Toe1_02 R_Toe1_01
R_Toe1_03 R_Toe1_02
R_Toe2_02 R_Toe2_01
R_Toe2_03 R_Toe2_02
R_Toe3_02 R_Toe3_01
R_Toe3_03 R_Toe3_02
Rear_Leg02 Rear_Leg01
Rear_Leg03 Rear_Leg02
Rear_Leg04 Rear_Leg03
Rear_Foot Rear_Leg04
planeAlignerCenter Rear_Foot
Rear_Toe1_01 Rear_Foot
Rear_Toe2_01 Rear_Foot
Rear_Toe3_01 Rear_Foot
planeLockWeightCenter planeAlignerCenter
Rear_Toe1_02 Rear_Toe1_01
Rear_Toe1_03 Rear_Toe1_02
Rear_Toe2_02 Rear_Toe2_01
Rear_Toe2_03 Rear_Toe2_02
Rear_Toe3_02 Rear_Toe3_01
Rear_Toe3_03 Rear_Toe3_02
Back_Bone Spine1
Head Spine1
Motor_Bone Back_Bone
Ping_Mechanism Back_Bone
BN_LookIK Head
bottomMouth Head
L_Mouth01 Head
L_mouthFront Head
mouthGun Head
R_Mouth01 Head
R_mouthFront Head
TopMouth Head
weapon_bone Head
[BasePosition]
#SegmentName Tx, Ty, Tz, Rx, Ry, Rz, BoneLength
Pinger_Root 0.000000 0.000000 0.000000 -90.000000 0.000000 0.000000 10.000000 
Pelvis 0.000000 0.000000 0.000000 0.000000 0.000000 0.000000 10.000000 
L_Hip 0.000000 0.000000 0.000000 0.000000 0.000000 0.000000 10.000000 
R_Hip 0.000000 0.000000 0.000000 0.000000 0.000000 0.000000 10.000000 
Rear_Leg01 0.000000 0.000000 0.000000 0.000000 0.000000 0.000000 10.000000 
Spine1 0.000000 0.000000 0.000000 0.000000 0.000000 0.000000 10.000000 
L_Leg01 0.000000 0.000000 0.000000 0.000000 0.000000 0.000000 10.000000 
L_Leg02 0.000000 0.000000 0.000000 0.000000 0.000000 0.000000 10.000000 
L_Leg03 0.000000 0.000000 0.000000 0.000000 0.000000 0.000000 10.000000 
L_Foot 0.000000 0.000000 0.000000 0.000000 0.000000 0.000000 10.000000 
L_Toe1_01 0.000000 0.000000 0.000000 0.000000 0.000000 0.000000 10.000000 
L_Toe2_01 0.000000 0.000000 0.000000 0.000000 0.000000 0.000000 10.000000 
L_Toe3_01 0.000000 0.000000 0.000000 0.000000 0.000000 0.000000 10.000000 
planeAlignerLeft 0.000000 0.000000 0.000000 0.000000 0.000000 0.000000 10.000000 
L_Toe1_02 0.000000 0.000000 0.000000 0.000000 0.000000 0.000000 10.000000 
L_Toe1_03 0.000000 0.000000 0.000000 0.000000 0.000000 0.000000 10.000000 
L_Toe2_02 0.000000 0.000000 0.000000 0.000000 0.000000 0.000000 10.000000 
L_Toe2_03 0.000000 0.000000 0.000000 0.000000 0.000000 0.000000 10.000000 
L_Toe3_02 0.000000 0.000000 0.000000 0.000000 0.000000 0.000000 10.000000 
L_Toe3_03 0.000000 0.000000 0.000000 0.000000 0.000000 0.000000 10.000000 
planeLockWeightLeft 0.000000 0.000000 0.000000 0.000000 0.000000 0.000000 10.000000 
R_Leg01 0.000000 0.000000 0.000000 0.000000 0.000000 0.000000 10.000000 
R_Leg02 0.000000 0.000000 0.000000 0.000000 0.000000 0.000000 10.000000 
R_Leg03 0.000000 0.000000 0.000000 0.000000 0.000000 0.000000 10.000000 
R_Foot 0.000000 0.000000 0.000000 0.000000 0.000000 0.000000 10.000000 
planeAlignerRight 0.000000 0.000000 0.000000 0.000000 0.000000 0.000000 10.000000 
R_Toe1_01 0.000000 0.000000 0.000000 0.000000 0.000000 0.000000 10.000000 
R_Toe2_01 0.000000 0.000000 0.000000 0.000000 0.000000 0.000000 10.000000 
R_Toe3_01 0.000000 0.000000 0.000000 0.000000 0.000000 0.000000 10.000000 
planeLockWeightRight 0.000000 0.000000 0.000000 0.000000 0.000000 0.000000 10.000000 
R_Toe1_02 0.000000 0.000000 0.000000 0.000000 0.000000 0.000000 10.000000 
R_Toe1_03 0.000000 0.000000 0.000000 0.000000 0.000000 0.000000 10.000000 
R_Toe2_02 0.000000 0.000000 0.000000 0.000000 0.000000 0.000000 10.000000 
R_Toe2_03 0.000000 0.000000 0.000000 0.000000 0.000000 0.000000 10.000000 
R_Toe3_02 0.000000 0.000000 0.000000 0.000000 0.000000 0.000000 10.000000 
R_Toe3_03 0.000000 0.000000 0.000000 0.000000 0.000000 0.000000 10.000000 
Rear_Leg02 0.000000 0.000000 0.000000 0.000000 0.000000 0.000000 10.000000 
Rear_Leg03 0.000000 0.000000 0.000000 0.000000 0.000000 0.000000 10.000000 
Rear_Leg04 0.000000 0.000000 0.000000 0.000000 0.000000 0.000000 10.000000 
Rear_Foot 0.000000 0.000000 0.000000 0.000000 0.000000 0.000000 10.000000 
planeAlignerCenter 0.000000 0.000000 0.000000 0.000000 0.000000 0.000000 10.000000 
Rear_Toe1_01 0.000000 0.000000 0.000000 0.000000 0.000000 0.000000 10.000000 
Rear_Toe2_01 0.000000 0.000000 0.000000 0.000000 0.000000 0.000000 10.000000 
Rear_Toe3_01 0.000000 0.000000 0.000000 0.000000 0.000000 0.000000 10.000000 
planeLockWeightCenter 0.000000 0.000000 0.000000 0.000000 0.000000 0.000000 10.000000 
Rear_Toe1_02 0.000000 0.000000 0.000000 0.000000 0.000000 0.000000 10.000000 
Rear_Toe1_03 0.000000 0.000000 0.000000 0.000000 0.000000 0.000000 10.000000 
Rear_Toe2_02 0.000000 0.000000 0.000000 0.000000 0.000000 0.000000 10.000000 
Rear_Toe2_03 0.000000 0.000000 0.000000 0.000000 0.000000 0.000000 10.000000 
Rear_Toe3_02 0.000000 0.000000 0.000000 0.000000 0.000000 0.000000 10.000000 
Rear_Toe3_03 0.000000 0.000000 0.000000 0.000000 0.000000 0.000000 10.000000 
Back_Bone 0.000000 0.000000 0.000000 0.000000 0.000000 0.000000 10.000000 
Head 0.000000 0.000000 0.000000 0.000000 0.000000 0.000000 10.000000 
Motor_Bone 0.000000 0.000000 0.000000 0.000000 0.000000 0.000000 10.000000 
Ping_Mechanism 0.000000 0.000000 0.000000 0.000000 0.000000 0.000000 10.000000 
BN_LookIK 0.000000 0.000000 0.000000 0.000000 0.000000 0.000000 10.000000 
bottomMouth 0.000000 0.000000 0.000000 0.000000 0.000000 0.000000 10.000000 
L_Mouth01 0.000000 0.000000 0.000000 0.000000 0.000000 0.000000 10.000000 
L_mouthFront 0.000000 0.000000 0.000000 0.000000 0.000000 0.000000 10.000000 
mouthGun 0.000000 0.000000 0.000000 0.000000 0.000000 0.000000 10.000000 
R_Mouth01 0.000000 0.000000 0.000000 0.000000 0.000000 0.000000 10.000000 
R_mouthFront 0.000000 0.000000 0.000000 0.000000 0.000000 0.000000 10.000000 
TopMouth 0.000000 0.000000 0.000000 0.000000 0.000000 0.000000 10.000000 
weapon_bone 0.000000 0.000000 0.000000 0.000000 0.000000 0.000000 10.000000 
#Beginning of Data. Separated by tabs
#Fr	Tx	Ty	Tz	Rx	Ry	Rz	SF
[Pinger_Root]
70 0.000000 0.000000 0.000000 -0.000075 -0.000000 -0.000020 0.000000
71 0.000000 0.000000 0.000000 -0.000075 -0.000000 -0.000020 0.000000
72 0.000000 0.000000 0.000000 -0.000075 -0.000000 -0.000020 0.000000
[Pelvis]
70 -0.000024 -359.998749 2479.145020 98.983414 -76.886292 -106.106964 2505.146484
71 -0.000024 -359.998749 2477.543945 98.944870 -76.831367 -106.067230 2503.562012
72 -0.000024 -359.998749 2475.942871 98.906754 -76.776489 -106.027954 2501.977539
[L_Hip]
70 5.766392 125.831482 872.656799 -93.444542 -58.027916 1.001307 881.701050
71 5.766392 125.831482 872.656799 -93.432991 -57.913883 0.988038 881.701050
72 5.766392 125.831482 872.656799 -93.421570 -57.799881 0.974857 881.701050
[R_Hip]
70 5.765438 125.836372 -872.654907 -120.244911 45.380428 -31.478308 881.699829
71 5.765438 125.836372 -872.654907 -120.183464 45.276196 -31.391949 881.699829
72 5.765438 125.836372 -872.654907 -120.122322 45.171875 -31.305885 881.699829
[Rear_Leg01]
70 -192.298416 -925.602966 -0.001907 -172.859024 3.082921 -111.454582 945.367432
71 -192.298416 -925.602966 -0.001907 -172.853973 3.099947 -111.441628 945.367432
72 -192.298416 -925.602966 -0.001907 -172.848953 3.116972 -111.428650 945.367432
[Spine1]
70 290.604584 5.007505 0.000477 7.589322 0.013420 41.162788 290.647736
71 290.604584 5.007505 0.000477 7.589478 0.013384 41.222359 290.647736
72 290.604584 5.007505 0.000477 7.589634 0.013348 41.281940 290.647736
[L_Leg01]
70 761.932007 -0.002384 -0.069261 136.270859 -83.180733 -127.807281 761.932068
71 761.932007 -0.002384 -0.069261 137.158630 -83.232941 -128.813522 761.932068
72 761.932007 -0.002384 -0.069261 138.060898 -83.283325 -129.834229 761.932068
[L_Leg02]
70 1441.140503 -0.000954 -0.000715 8.255630 -3.389137 -136.621811 1441.140503
71 1441.140503 -0.000954 -0.000715 8.245214 -3.398226 -136.681915 1441.140503
72 1441.140503 -0.000954 -0.000715 8.237046 -3.405865 -136.822479 1441.140503
[L_Leg03]
70 1686.963989 -0.000715 -0.000954 0.044575 -0.011194 98.267654 1686.963989
71 1686.963989 -0.000715 -0.000954 0.044879 -0.011498 98.174736 1686.963989
72 1686.963989 -0.000715 -0.000954 0.045183 -0.011801 98.081825 1686.963989
[L_Foot]
70 3041.570068 -30.715107 11.297464 -34.571938 30.017231 26.033489 3041.746094
71 3041.570068 -30.715107 11.297464 -34.574539 30.014591 26.085546 3041.746094
72 3041.570068 -30.715107 11.297464 -34.577156 30.011953 26.137600 3041.746094
[L_Toe1_01]
70 -188.216690 -224.732346 -21.137953 73.397011 -5.597657 -173.427475 293.899567
71 -188.216690 -224.732346 -21.137953 73.409683 -5.651440 -173.569916 293.899567
72 -188.216690 -224.732346 -21.137953 73.422493 -5.705191 -173.712387 293.899567
[L_Toe2_01]
70 200.746536 -219.926590 148.838394 -73.056145 -15.889746 -54.094345 332.896027
71 200.746536 -219.926590 148.838394 -73.056114 -15.840014 -54.082523 332.896027
72 200.746536 -219.926590 148.838394 -73.056061 -15.790277 -54.070690 332.896027
[L_Toe3_01]
70 188.832520 -219.859131 -191.078659 -124.942177 45.462288 -59.032978 347.140900
71 188.832520 -219.859131 -191.078659 -124.893562 45.333759 -58.947968 347.140900
72 188.832520 -219.859131 -191.078659 -124.845329 45.205173 -58.863300 347.140900
[planeAlignerLeft]
70 -23.713064 -485.363556 -94.889587 -49.328968 -81.965492 -51.672180 495.120270
71 -21.378994 -485.491730 -94.962860 -49.326416 -81.964615 -51.674751 495.153748
72 -19.044888 -485.619904 -95.036133 -49.323883 -81.963730 -51.677372 495.198181
[L_Toe1_02]
70 413.761139 0.000477 0.000000 0.001389 -25.298132 0.001389 413.761139
71 413.761139 0.000477 0.000000 0.001389 -25.387920 0.001389 413.761139
72 413.761139 0.000477 0.000000 0.001388 -25.477711 0.001388 413.761139
[L_Toe1_03]
70 464.317322 0.000358 -0.000089 0.002929 42.763771 0.002929 464.317322
71 464.317322 0.000358 -0.000089 0.002974 43.518761 0.002974 464.317322
72 464.317322 0.000358 -0.000089 0.003033 44.467850 0.003033 464.317322
[L_Toe2_02]
70 342.235809 -0.000477 0.000238 0.001182 -76.497704 0.001182 342.235809
71 342.235809 -0.000477 0.000238 0.001182 -76.427689 0.001182 342.235809
72 342.235809 -0.000477 0.000238 0.001182 -76.357674 0.001182 342.235809
[L_Toe2_03]
70 420.210846 -0.000715 0.000000 -179.993637 81.869911 -179.990143 420.210846
71 420.210846 -0.000715 0.000000 -179.993347 82.162933 -179.989838 420.210846
72 420.210846 -0.000715 0.000000 -179.993011 82.455795 -179.989517 420.210846
[L_Toe3_02]
70 329.270111 0.000954 0.000000 0.001176 -82.759361 0.001176 329.270111
71 329.270111 0.000954 0.000000 0.001176 -82.711609 0.001176 329.270111
72 329.270111 0.000954 0.000000 0.001176 -82.663910 0.001176 329.270111
[L_Toe3_03]
70 439.137451 -0.001907 0.000954 179.992523 67.756348 179.998947 439.137451
71 439.137451 -0.001907 0.000954 179.994659 67.966415 -179.999634 439.137451
72 439.137451 -0.001907 0.000954 179.996857 68.176460 -179.998169 439.137451
[planeLockWeightLeft]
70 999.998901 0.098115 0.075988 -0.011826 -0.004376 0.005620 999.998962
71 999.998901 0.098117 0.075988 -0.011826 -0.004376 0.005620 999.998962
72 999.998901 0.098120 0.075987 -0.011826 -0.004376 0.005620 999.998962
[R_Leg01]
70 761.455627 -0.001907 -0.000358 52.832386 -53.480293 121.148186 761.455688
71 761.455627 -0.001907 -0.000358 52.842201 -53.378429 121.205589 761.455688
72 761.455627 -0.001907 -0.000358 52.852161 -53.276566 121.262894 761.455688
[R_Leg02]
70 1441.140625 0.000000 -0.000238 -20.562384 1.064238 -111.213219 1441.140625
71 1441.140625 0.000000 -0.000238 -20.581371 1.039438 -111.259094 1441.140625
72 1441.140625 0.000000 -0.000238 -20.600340 1.014621 -111.304985 1441.140625
[R_Leg03]
70 1686.963989 0.000954 0.001431 0.040793 -0.018669 121.233467 1686.963989
71 1686.963989 0.000954 0.001431 0.040787 -0.018682 121.270378 1686.963989
72 1686.963989 0.000954 0.001431 0.040780 -0.018695 121.307274 1686.963989
[R_Foot]
70 3041.560059 -30.531288 -11.204481 28.503084 -28.378479 19.923010 3041.734131
71 3041.560059 -30.531288 -11.204481 28.500830 -28.390467 19.934996 3041.734131
72 3041.560059 -30.531288 -11.204481 28.498573 -28.402454 19.946991 3041.734131
[planeAlignerRight]
70 -206.644821 -561.742371 -76.649506 -172.216263 -81.431870 69.619392 603.433289
71 -204.149109 -561.761536 -76.689293 -172.216293 -81.431931 69.619461 602.606140
72 -200.416504 -562.281372 -76.648605 -172.216263 -81.431870 69.619392 601.832336
[R_Toe1_01]
70 -188.383347 -224.864899 21.052242 102.497787 -2.268339 -173.313370 294.101532
71 -188.383347 -224.864899 21.052242 102.508293 -2.212822 -173.560699 294.101532
72 -188.383347 -224.864899 21.052242 102.518562 -2.157259 -173.807983 294.101532
[R_Toe2_01]
70 200.637817 -220.002121 -148.787384 -125.693565 12.345735 -63.332603 332.857574
71 200.637817 -220.002121 -148.787384 -125.679543 12.303727 -63.277851 332.857574
72 200.637817 -220.002121 -148.787384 -125.654503 12.175140 -63.220627 332.857574
[R_Toe3_01]
70 188.606735 -220.092957 191.126343 -67.182571 -38.055347 -60.152248 347.192566
71 188.606735 -220.092957 191.126343 -67.203949 -37.909557 -60.089539 347.192566
72 188.606735 -220.092957 191.126343 -67.225098 -37.763767 -60.027023 347.192566
[planeLockWeightRight]
70 999.999329 0.000000 0.076003 -0.011823 -0.004379 -0.000027 999.999329
71 999.999329 0.000000 0.076003 -0.011823 -0.004379 -0.000027 999.999329
72 999.999329 0.000000 0.076003 -0.011823 -0.004379 -0.000027 999.999329
[R_Toe1_02]
70 413.762085 0.000477 -0.000119 0.001385 -25.901283 0.001385 413.762085
71 413.762085 0.000477 -0.000119 0.001385 -25.916502 0.001385 413.762085
72 413.762085 0.000477 -0.000119 0.001384 -25.931726 0.001384 413.762085
[R_Toe1_03]
70 464.317810 0.000000 0.001088 0.003543 51.309227 0.003543 464.317810
71 464.317810 0.000000 0.001088 0.003627 52.241978 0.003627 464.317810
72 464.317810 0.000000 0.001088 0.003716 53.174820 0.003716 464.317810
[R_Toe2_02]
70 342.234741 -0.000954 0.000238 -0.002343 -74.961433 -0.002343 342.234741
71 342.234741 -0.000954 0.000238 -0.002343 -74.891907 -0.002343 342.234741
72 342.234741 -0.000954 0.000238 -0.004619 -74.706863 0.000637 342.234741
[R_Toe2_03]
70 420.210846 0.000715 -0.000268 -179.977325 86.850983 -179.980835 420.210846
71 420.210846 0.000715 -0.000268 -179.974121 87.270996 -179.977615 420.210846
72 420.210846 0.000715 -0.000268 -179.969742 87.691063 -179.973236 420.210846
[R_Toe3_02]
70 329.270355 -0.000477 -0.000954 0.001176 -82.482841 0.001176 329.270355
71 329.270355 -0.000477 -0.000954 0.001176 -82.431877 0.001176 329.270355
72 329.270355 -0.000477 -0.000954 0.001176 -82.380905 0.001176 329.270355
[R_Toe3_03]
70 439.137939 0.000238 0.001431 -179.998642 68.914871 -179.995071 439.137939
71 439.137939 0.000238 0.001431 -179.998596 69.151817 -179.995041 439.137939
72 439.137939 0.000238 0.001431 -179.998566 69.388702 -179.995010 439.137939
[Rear_Leg02]
70 1162.777710 -0.029802 0.005960 6.033832 0.510102 -149.864258 1162.777710
71 1162.777710 -0.029802 0.005960 6.028654 0.502937 -149.957001 1162.777710
72 1162.777710 -0.029802 0.005960 6.023486 0.495764 -150.049744 1162.777710
[Rear_Leg03]
70 607.192505 -0.013351 -0.073195 0.010236 -0.005602 73.743919 607.192505
71 607.192505 -0.013351 -0.073195 0.010235 -0.005603 73.745979 607.192505
72 607.192505 -0.013351 -0.073195 0.010235 -0.005603 73.748047 607.192505
[Rear_Leg04]
70 995.874512 -0.020504 -0.011921 -0.045167 -0.018119 79.700043 995.874573
71 995.874512 -0.020504 -0.011921 -0.045169 -0.018114 79.712502 995.874573
72 995.874512 -0.020504 -0.011921 -0.045171 -0.018109 79.724960 995.874573
[Rear_Foot]
70 3096.176270 -0.067472 -0.041425 -15.006121 81.571259 -154.916229 3096.176270
71 3096.176270 -0.067472 -0.041425 -14.974875 81.568047 -154.838760 3096.176270
72 3096.176270 -0.067472 -0.041425 -14.943602 81.564743 -154.761246 3096.176270
[planeAlignerCenter]
70 -8.960288 -182.911850 -665.198608 12.240773 -0.001473 179.998184 689.946533
71 -8.931656 -182.318100 -665.038330 12.240773 -0.001473 179.998184 689.634460
72 -8.903022 -181.724350 -664.878113 12.240773 -0.001473 179.998184 689.322815
[Rear_Toe1_01]
70 0.653352 83.966492 -371.173737 0.712614 30.825180 91.078514 380.553192
71 0.653352 83.966492 -371.173737 0.709543 30.823029 91.075371 380.553192
72 0.653352 83.966492 -371.173737 0.706477 30.820885 91.072227 380.553192
[Rear_Toe2_01]
70 178.200760 -294.826019 -362.060547 -8.046035 29.254930 -68.118004 499.765686
71 178.200760 -294.826019 -362.060547 -8.045805 29.256464 -68.112206 499.765686
72 178.200760 -294.826019 -362.060547 -8.045573 29.257998 -68.106392 499.765686
[Rear_Toe3_01]
70 -153.359680 -308.780914 -362.060852 3.660909 27.968142 -111.879089 499.952881
71 -153.359680 -308.780914 -362.060852 3.660006 27.985195 -111.890388 499.952881
72 -153.359680 -308.780914 -362.060852 3.659099 28.002256 -111.901711 499.952881
[planeLockWeightCenter]
70 1000.000122 0.000151 0.076251 -0.011814 -0.004373 -0.000015 1000.000122
71 1000.000122 0.000149 0.076251 -0.011814 -0.004373 -0.000015 1000.000122
72 1000.000122 0.000147 0.076251 -0.011814 -0.004373 -0.000015 1000.000122
[Rear_Toe1_02]
70 379.707825 0.194073 0.000477 -0.002651 -32.408794 -0.002651 379.707855
71 379.707825 0.194073 0.000477 -0.002651 -32.408592 -0.002651 379.707855
72 379.707825 0.194073 0.000477 -0.002651 -32.408398 -0.002651 379.707855
[Rear_Toe1_03]
70 500.129700 0.165701 0.000119 -179.981552 86.056824 -179.985046 500.129761
71 500.129700 0.165701 0.000119 -179.981186 86.142326 -179.984680 500.129761
72 500.129700 0.165701 0.000119 -179.980789 86.227577 -179.984283 500.129761
[Rear_Toe2_02]
70 340.494507 0.000238 -0.000954 0.001199 -66.241119 0.001199 340.494507
71 340.494507 0.000238 -0.000954 0.001199 -66.324402 0.001199 340.494507
72 340.494507 0.000238 -0.000954 0.001199 -66.407707 0.001199 340.494507
[Rear_Toe2_03]
70 433.103577 0.000000 0.000238 0.005310 64.462601 0.005310 433.103546
71 433.103577 0.000000 0.000238 0.005333 64.573700 0.005333 433.103546
72 433.103577 0.000000 0.000238 0.005356 64.684822 0.005356 433.103546
[Rear_Toe3_02]
70 340.494141 -0.000358 -0.000477 -0.002396 -61.578438 -0.002396 340.494171
71 340.494141 -0.000358 -0.000477 -0.002396 -61.665421 -0.002396 340.494171
72 340.494141 -0.000358 -0.000477 -0.002395 -61.752388 -0.002395 340.494171
[Rear_Toe3_03]
70 433.103577 0.001431 -0.000238 -0.000275 58.132183 -0.003912 433.103546
71 433.103577 0.001431 -0.000238 -0.000283 58.239643 -0.003918 433.103546
72 433.103577 0.001431 -0.000238 -0.000290 58.347095 -0.003925 433.103546
[Back_Bone]
70 1312.175781 -701.934692 0.000954 1.394237 -0.000557 -90.018555 1488.125488
71 1312.175781 -701.934692 0.000954 1.395397 -0.000676 -90.424408 1488.125488
72 1312.175781 -701.934692 0.000954 1.395490 0.000212 -91.071754 1488.125488
[Head]
70 1406.159424 809.709290 0.001431 -1.949721 2.604508 4.387756 1622.625488
71 1406.159424 809.709290 0.001431 -1.949317 2.604847 4.396901 1622.625488
72 1406.159424 809.709290 0.001431 -1.948911 2.605185 4.406045 1622.625488
[Motor_Bone]
70 1158.364380 -417.834747 0.000477 -0.043596 0.145792 -112.749008 1231.419434
71 1158.364380 -417.834747 0.000477 -0.021318 0.159779 -112.664711 1231.419434
72 1158.364380 -417.834747 0.000477 0.000980 0.173733 -112.580399 1231.419434
[Ping_Mechanism]
70 1163.189819 -389.970215 -17.664467 0.000103 -0.000053 82.120995 1226.947144
71 1162.485107 -391.516998 -17.686514 0.000103 -0.000053 82.120995 1226.772217
72 1161.780518 -393.063843 -17.708565 0.000103 -0.000053 82.120995 1226.599609
[BN_LookIK]
70 193.241119 1380.371704 -0.002861 0.000000 89.965736 -31.038179 1393.832153
71 193.241119 1380.371704 -0.002861 0.000000 89.965736 -31.038179 1393.832153
72 193.241119 1380.371704 -0.002861 0.000000 89.965736 -31.038179 1393.832153
[bottomMouth]
70 -435.092926 615.759399 -0.000954 -0.000022 0.000016 73.527184 753.966492
71 -435.092926 615.759399 -0.000954 -0.000022 0.000016 73.527184 753.966492
72 -435.092926 615.759399 -0.000954 -0.000022 0.000016 73.527184 753.966492
[L_Mouth01]
70 554.440979 7.658243 838.222046 150.204178 23.759130 109.605339 1005.027161
71 554.440979 7.658243 838.222046 150.204178 23.759130 109.605339 1005.027161
72 554.440979 7.658243 838.222046 150.204178 23.759130 109.605339 1005.027161
[L_mouthFront]
70 551.629089 934.514771 339.150421 0.000081 2.804060 79.119301 1136.941284
71 551.629089 934.514771 339.150421 0.000081 2.804060 79.119301 1136.941284
72 551.629089 934.514771 339.150421 0.000081 2.804060 79.119301 1136.941284
[mouthGun]
70 55.332661 1627.420898 0.000000 0.000023 0.000009 -11.038128 1628.361328
71 55.332661 1627.420898 0.000000 0.000023 0.000009 -11.038128 1628.361328
72 55.332661 1627.420898 0.000000 0.000023 0.000009 -11.038128 1628.361328
[R_Mouth01]
70 554.442383 7.659197 -838.223938 29.795891 -23.759109 109.605331 1005.029541
71 554.442383 7.659197 -838.223938 29.795891 -23.759109 109.605331 1005.029541
72 554.442383 7.659197 -838.223938 29.795891 -23.759109 109.605331 1005.029541
[R_mouthFront]
70 551.629089 934.514282 -339.151367 0.000029 -2.803930 79.119133 1136.941162
71 551.629089 934.514282 -339.151367 0.000029 -2.803930 79.119133 1136.941162
72 551.629089 934.514282 -339.151367 0.000029 -2.803930 79.119133 1136.941162
[TopMouth]
70 461.269867 -56.106091 -0.008583 -0.000059 -0.000268 92.025169 464.669525
71 461.269867 -56.106091 -0.008583 -0.000059 -0.000268 92.025169 464.669525
72 461.269867 -56.106091 -0.008583 -0.000059 -0.000268 92.025169 464.669525
[weapon_bone]
70 -987.239868 1448.372803 0.001431 0.000000 89.965736 -31.038221 1752.833740
71 -987.239868 1448.372803 0.001431 0.000000 89.965736 -31.038221 1752.833740
72 -987.239868 1448.372803 0.001431 0.000000 89.965736 -31.038221 1752.833740
